<?xml version="1.0" encoding="utf-8" standalone="no"?>
<!DOCTYPE svg PUBLIC "-//W3C//DTD SVG 1.1//EN"
  "http://www.w3.org/Graphics/SVG/1.1/DTD/svg11.dtd">
<svg xmlns:xlink="http://www.w3.org/1999/xlink" width="555.4998pt" height="91.07pt" viewBox="0 0 555.4998 91.07" xmlns="http://www.w3.org/2000/svg" version="1.1">
 <metadata>
  <rdf:RDF xmlns:dc="http://purl.org/dc/elements/1.1/" xmlns:cc="http://creativecommons.org/ns#" xmlns:rdf="http://www.w3.org/1999/02/22-rdf-syntax-ns#">
   <cc:Work>
    <dc:type rdf:resource="http://purl.org/dc/dcmitype/StillImage"/>
    <dc:date>2023-05-12T15:20:33.633934</dc:date>
    <dc:format>image/svg+xml</dc:format>
    <dc:creator>
     <cc:Agent>
      <dc:title>Matplotlib v3.7.1, https://matplotlib.org/</dc:title>
     </cc:Agent>
    </dc:creator>
   </cc:Work>
  </rdf:RDF>
 </metadata>
 <defs>
  <style type="text/css">*{stroke-linejoin: round; stroke-linecap: butt}</style>
 </defs>
 <g id="figure_1">
  <g id="patch_1">
   <path d="M 0 91.07 
L 555.4998 91.07 
L 555.4998 0 
L 0 0 
L 0 91.07 
z
" style="fill: none"/>
  </g>
  <g id="axes_1">
   <g id="patch_2">
    <path d="M 106.497 61.532 
C 107.470826 61.532 108.404897 61.145095 109.093496 60.456496 
C 109.782095 59.767897 110.169 58.833826 110.169 57.86 
C 110.169 56.886174 109.782095 55.952103 109.093496 55.263504 
C 108.404897 54.574905 107.470826 54.188 106.497 54.188 
C 105.523174 54.188 104.589103 54.574905 103.900504 55.263504 
C 103.211905 55.952103 102.825 56.886174 102.825 57.86 
C 102.825 58.833826 103.211905 59.767897 103.900504 60.456496 
C 104.589103 61.145095 105.523174 61.532 106.497 61.532 
L 106.497 61.532 
z
" clip-path="url(#pad093230ec)" style="fill: none; stroke: #000000; stroke-width: 2; stroke-linejoin: miter"/>
   </g>
   <g id="patch_3">
    <path d="M 106.497 61.532 
C 107.470826 61.532 108.404897 61.145095 109.093496 60.456496 
C 109.782095 59.767897 110.169 58.833826 110.169 57.86 
C 110.169 56.886174 109.782095 55.952103 109.093496 55.263504 
C 108.404897 54.574905 107.470826 54.188 106.497 54.188 
C 105.523174 54.188 104.589103 54.574905 103.900504 55.263504 
C 103.211905 55.952103 102.825 56.886174 102.825 57.86 
C 102.825 58.833826 103.211905 59.767897 103.900504 60.456496 
C 104.589103 61.145095 105.523174 61.532 106.497 61.532 
L 106.497 61.532 
z
" clip-path="url(#pad093230ec)" style="fill: none; stroke: #000000; stroke-width: 2; stroke-linejoin: miter"/>
   </g>
   <g id="patch_4">
    <path d="M 219.717 61.532 
C 220.690826 61.532 221.624897 61.145095 222.313496 60.456496 
C 223.002095 59.767897 223.389 58.833826 223.389 57.86 
C 223.389 56.886174 223.002095 55.952103 222.313496 55.263504 
C 221.624897 54.574905 220.690826 54.188 219.717 54.188 
C 218.743174 54.188 217.809103 54.574905 217.120504 55.263504 
C 216.431905 55.952103 216.045 56.886174 216.045 57.86 
C 216.045 58.833826 216.431905 59.767897 217.120504 60.456496 
C 217.809103 61.145095 218.743174 61.532 219.717 61.532 
L 219.717 61.532 
z
" clip-path="url(#pad093230ec)" style="fill: none; stroke: #000000; stroke-width: 2; stroke-linejoin: miter"/>
   </g>
   <g id="patch_5">
    <path d="M 219.717 61.532 
C 220.690826 61.532 221.624897 61.145095 222.313496 60.456496 
C 223.002095 59.767897 223.389 58.833826 223.389 57.86 
C 223.389 56.886174 223.002095 55.952103 222.313496 55.263504 
C 221.624897 54.574905 220.690826 54.188 219.717 54.188 
C 218.743174 54.188 217.809103 54.574905 217.120504 55.263504 
C 216.431905 55.952103 216.045 56.886174 216.045 57.86 
C 216.045 58.833826 216.431905 59.767897 217.120504 60.456496 
C 217.809103 61.145095 218.743174 61.532 219.717 61.532 
L 219.717 61.532 
z
" clip-path="url(#pad093230ec)" style="fill: none; stroke: #000000; stroke-width: 2; stroke-linejoin: miter"/>
   </g>
   <g id="patch_6">
    <path d="M 332.937 61.532 
C 333.910826 61.532 334.844897 61.145095 335.533496 60.456496 
C 336.222095 59.767897 336.609 58.833826 336.609 57.86 
C 336.609 56.886174 336.222095 55.952103 335.533496 55.263504 
C 334.844897 54.574905 333.910826 54.188 332.937 54.188 
C 331.963174 54.188 331.029103 54.574905 330.340504 55.263504 
C 329.651905 55.952103 329.265 56.886174 329.265 57.86 
C 329.265 58.833826 329.651905 59.767897 330.340504 60.456496 
C 331.029103 61.145095 331.963174 61.532 332.937 61.532 
L 332.937 61.532 
z
" clip-path="url(#pad093230ec)" style="fill: none; stroke: #000000; stroke-width: 2; stroke-linejoin: miter"/>
   </g>
   <g id="patch_7">
    <path d="M 332.937 61.532 
C 333.910826 61.532 334.844897 61.145095 335.533496 60.456496 
C 336.222095 59.767897 336.609 58.833826 336.609 57.86 
C 336.609 56.886174 336.222095 55.952103 335.533496 55.263504 
C 334.844897 54.574905 333.910826 54.188 332.937 54.188 
C 331.963174 54.188 331.029103 54.574905 330.340504 55.263504 
C 329.651905 55.952103 329.265 56.886174 329.265 57.86 
C 329.265 58.833826 329.651905 59.767897 330.340504 60.456496 
C 331.029103 61.145095 331.963174 61.532 332.937 61.532 
L 332.937 61.532 
z
" clip-path="url(#pad093230ec)" style="fill: none; stroke: #000000; stroke-width: 2; stroke-linejoin: miter"/>
   </g>
   <g id="patch_8">
    <path d="M 446.157 61.532 
C 447.130826 61.532 448.064897 61.145095 448.753496 60.456496 
C 449.442095 59.767897 449.829 58.833826 449.829 57.86 
C 449.829 56.886174 449.442095 55.952103 448.753496 55.263504 
C 448.064897 54.574905 447.130826 54.188 446.157 54.188 
C 445.183174 54.188 444.249103 54.574905 443.560504 55.263504 
C 442.871905 55.952103 442.485 56.886174 442.485 57.86 
C 442.485 58.833826 442.871905 59.767897 443.560504 60.456496 
C 444.249103 61.145095 445.183174 61.532 446.157 61.532 
L 446.157 61.532 
z
" clip-path="url(#pad093230ec)" style="fill: none; stroke: #000000; stroke-width: 2; stroke-linejoin: miter"/>
   </g>
   <g id="patch_9">
    <path d="M 446.157 61.532 
C 447.130826 61.532 448.064897 61.145095 448.753496 60.456496 
C 449.442095 59.767897 449.829 58.833826 449.829 57.86 
C 449.829 56.886174 449.442095 55.952103 448.753496 55.263504 
C 448.064897 54.574905 447.130826 54.188 446.157 54.188 
C 445.183174 54.188 444.249103 54.574905 443.560504 55.263504 
C 442.871905 55.952103 442.485 56.886174 442.485 57.86 
C 442.485 58.833826 442.871905 59.767897 443.560504 60.456496 
C 444.249103 61.145095 445.183174 61.532 446.157 61.532 
L 446.157 61.532 
z
" clip-path="url(#pad093230ec)" style="fill: none; stroke: #000000; stroke-width: 2; stroke-linejoin: miter"/>
   </g>
   <g id="patch_10">
    <path d="M 502.767 69.182 
C 503.740826 69.182 504.674897 68.795095 505.363496 68.106496 
C 506.052095 67.417897 506.439 66.483826 506.439 65.51 
C 506.439 64.536174 506.052095 63.602103 505.363496 62.913504 
C 504.674897 62.224905 503.740826 61.838 502.767 61.838 
C 501.793174 61.838 500.859103 62.224905 500.170504 62.913504 
C 499.481905 63.602103 499.095 64.536174 499.095 65.51 
C 499.095 66.483826 499.481905 67.417897 500.170504 68.106496 
C 500.859103 68.795095 501.793174 69.182 502.767 69.182 
L 502.767 69.182 
z
" clip-path="url(#pad093230ec)" style="fill: none; stroke: #000000; stroke-width: 2; stroke-linejoin: miter"/>
   </g>
   <g id="patch_11">
    <path d="M 502.767 69.182 
C 503.740826 69.182 504.674897 68.795095 505.363496 68.106496 
C 506.052095 67.417897 506.439 66.483826 506.439 65.51 
C 506.439 64.536174 506.052095 63.602103 505.363496 62.913504 
C 504.674897 62.224905 503.740826 61.838 502.767 61.838 
C 501.793174 61.838 500.859103 62.224905 500.170504 62.913504 
C 499.481905 63.602103 499.095 64.536174 499.095 65.51 
C 499.095 66.483826 499.481905 67.417897 500.170504 68.106496 
C 500.859103 68.795095 501.793174 69.182 502.767 69.182 
L 502.767 69.182 
z
" clip-path="url(#pad093230ec)" style="fill: none; stroke: #000000; stroke-width: 2; stroke-linejoin: miter"/>
   </g>
   <g id="patch_12">
    <path d="M 502.767 69.182 
C 503.740826 69.182 504.674897 68.795095 505.363496 68.106496 
C 506.052095 67.417897 506.439 66.483826 506.439 65.51 
C 506.439 64.536174 506.052095 63.602103 505.363496 62.913504 
C 504.674897 62.224905 503.740826 61.838 502.767 61.838 
C 501.793174 61.838 500.859103 62.224905 500.170504 62.913504 
C 499.481905 63.602103 499.095 64.536174 499.095 65.51 
C 499.095 66.483826 499.481905 67.417897 500.170504 68.106496 
C 500.859103 68.795095 501.793174 69.182 502.767 69.182 
L 502.767 69.182 
z
" clip-path="url(#pad093230ec)" style="fill: none; stroke: #000000; stroke-width: 2; stroke-linejoin: miter"/>
   </g>
   <g id="line2d_1">
    <path d="M 87.525 73.16 
L 88.505274 73.128565 
L 89.481521 73.034387 
L 90.449727 72.877855 
L 91.405915 72.659611 
L 92.346156 72.380553 
L 93.266585 72.041826 
L 94.163421 71.644824 
L 95.032979 71.191176 
L 95.871684 70.682748 
L 96.676091 70.121628 
L 97.442894 69.510123 
L 98.168943 68.850745 
L 98.851253 68.146204 
L 99.487022 67.399394 
L 100.073635 66.613385 
L 100.608684 65.791406 
L 101.089969 64.936836 
L 101.515513 64.053185 
L 101.883567 63.144085 
L 102.192618 62.213272 
L 102.441397 61.26457 
L 102.628881 60.301878 
L 102.7543 59.329152 
L 102.817139 58.350389 
L 102.817139 57.369611 
L 102.7543 56.390848 
L 102.628881 55.418122 
L 102.441397 54.45543 
L 102.192618 53.506728 
L 101.883567 52.575915 
L 101.515513 51.666815 
L 101.089969 50.783164 
L 100.608684 49.928594 
L 100.073635 49.106615 
L 99.487022 48.320606 
L 98.851253 47.573796 
L 98.168943 46.869255 
L 97.442894 46.209877 
L 96.676091 45.598372 
L 95.871684 45.037252 
L 95.032979 44.528824 
L 94.163421 44.075176 
L 93.266585 43.678174 
L 92.346156 43.339447 
L 91.405915 43.060389 
L 90.449727 42.842145 
L 89.481521 42.685613 
L 88.505274 42.591435 
L 87.525 42.56 
L 87.525 42.56 
L 67.635 42.56 
L 67.635 57.86 
L 67.635 73.16 
L 87.525 73.16 
" clip-path="url(#pad093230ec)" style="fill: none; stroke: #000000; stroke-width: 2; stroke-linecap: round"/>
   </g>
   <g id="line2d_2">
    <path d="M 56.925 65.51 
L 67.635 65.51 
" clip-path="url(#pad093230ec)" style="fill: none; stroke: #000000; stroke-width: 2; stroke-linecap: round"/>
   </g>
   <g id="line2d_3">
    <path d="M 56.925 50.21 
L 67.635 50.21 
" clip-path="url(#pad093230ec)" style="fill: none; stroke: #000000; stroke-width: 2; stroke-linecap: round"/>
   </g>
   <g id="line2d_4">
    <path d="M 110.169 57.86 
L 113.535 57.86 
" clip-path="url(#pad093230ec)" style="fill: none; stroke: #000000; stroke-width: 2; stroke-linecap: round"/>
   </g>
   <g id="line2d_5">
    <path d="M 87.525 73.16 
L 88.505274 73.128565 
L 89.481521 73.034387 
L 90.449727 72.877855 
L 91.405915 72.659611 
L 92.346156 72.380553 
L 93.266585 72.041826 
L 94.163421 71.644824 
L 95.032979 71.191176 
L 95.871684 70.682748 
L 96.676091 70.121628 
L 97.442894 69.510123 
L 98.168943 68.850745 
L 98.851253 68.146204 
L 99.487022 67.399394 
L 100.073635 66.613385 
L 100.608684 65.791406 
L 101.089969 64.936836 
L 101.515513 64.053185 
L 101.883567 63.144085 
L 102.192618 62.213272 
L 102.441397 61.26457 
L 102.628881 60.301878 
L 102.7543 59.329152 
L 102.817139 58.350389 
L 102.817139 57.369611 
L 102.7543 56.390848 
L 102.628881 55.418122 
L 102.441397 54.45543 
L 102.192618 53.506728 
L 101.883567 52.575915 
L 101.515513 51.666815 
L 101.089969 50.783164 
L 100.608684 49.928594 
L 100.073635 49.106615 
L 99.487022 48.320606 
L 98.851253 47.573796 
L 98.168943 46.869255 
L 97.442894 46.209877 
L 96.676091 45.598372 
L 95.871684 45.037252 
L 95.032979 44.528824 
L 94.163421 44.075176 
L 93.266585 43.678174 
L 92.346156 43.339447 
L 91.405915 43.060389 
L 90.449727 42.842145 
L 89.481521 42.685613 
L 88.505274 42.591435 
L 87.525 42.56 
L 87.525 42.56 
L 67.635 42.56 
L 67.635 57.86 
L 67.635 73.16 
L 87.525 73.16 
" clip-path="url(#pad093230ec)" style="fill: none; stroke: #000000; stroke-width: 2; stroke-linecap: round"/>
   </g>
   <g id="line2d_6">
    <path d="M 56.925 65.51 
L 67.635 65.51 
" clip-path="url(#pad093230ec)" style="fill: none; stroke: #000000; stroke-width: 2; stroke-linecap: round"/>
   </g>
   <g id="line2d_7">
    <path d="M 56.925 50.21 
L 67.635 50.21 
" clip-path="url(#pad093230ec)" style="fill: none; stroke: #000000; stroke-width: 2; stroke-linecap: round"/>
   </g>
   <g id="line2d_8">
    <path d="M 110.169 57.86 
L 113.535 57.86 
" clip-path="url(#pad093230ec)" style="fill: none; stroke: #000000; stroke-width: 2; stroke-linecap: round"/>
   </g>
   <g id="line2d_9">
    <path d="M 144.135 65.51 
L 145.115274 65.478565 
L 146.091521 65.384387 
L 147.059727 65.227855 
L 148.015915 65.009611 
L 148.956156 64.730553 
L 149.876585 64.391826 
L 150.773421 63.994824 
L 151.642979 63.541176 
L 152.481684 63.032748 
L 153.286091 62.471628 
L 154.052894 61.860123 
L 154.778943 61.200745 
L 155.461253 60.496204 
L 156.097022 59.749394 
L 156.683635 58.963385 
L 157.218684 58.141406 
L 157.699969 57.286836 
L 158.125513 56.403185 
L 158.493567 55.494085 
L 158.802618 54.563272 
L 159.051397 53.61457 
L 159.238881 52.651878 
L 159.3643 51.679152 
L 159.427139 50.700389 
L 159.427139 49.719611 
L 159.3643 48.740848 
L 159.238881 47.768122 
L 159.051397 46.80543 
L 158.802618 45.856728 
L 158.493567 44.925915 
L 158.125513 44.016815 
L 157.699969 43.133164 
L 157.218684 42.278594 
L 156.683635 41.456615 
L 156.097022 40.670606 
L 155.461253 39.923796 
L 154.778943 39.219255 
L 154.052894 38.559877 
L 153.286091 37.948372 
L 152.481684 37.387252 
L 151.642979 36.878824 
L 150.773421 36.425176 
L 149.876585 36.028174 
L 148.956156 35.689447 
L 148.015915 35.410389 
L 147.059727 35.192145 
L 146.091521 35.035613 
L 145.115274 34.941435 
L 144.135 34.91 
L 144.135 34.91 
L 124.245 34.91 
L 124.245 50.21 
L 124.245 65.51 
L 144.135 65.51 
" clip-path="url(#pad093230ec)" style="fill: none; stroke: #000000; stroke-width: 2; stroke-linecap: round"/>
   </g>
   <g id="line2d_10">
    <path d="M 113.535 57.86 
L 124.245 57.86 
" clip-path="url(#pad093230ec)" style="fill: none; stroke: #000000; stroke-width: 2; stroke-linecap: round"/>
   </g>
   <g id="line2d_11">
    <path d="M 113.535 42.56 
L 124.245 42.56 
" clip-path="url(#pad093230ec)" style="fill: none; stroke: #000000; stroke-width: 2; stroke-linecap: round"/>
   </g>
   <g id="line2d_12">
    <path d="M 159.435 50.21 
L 170.145 50.21 
" clip-path="url(#pad093230ec)" style="fill: none; stroke: #000000; stroke-width: 2; stroke-linecap: round"/>
   </g>
   <g id="line2d_13">
    <path d="M 144.135 65.51 
L 145.115274 65.478565 
L 146.091521 65.384387 
L 147.059727 65.227855 
L 148.015915 65.009611 
L 148.956156 64.730553 
L 149.876585 64.391826 
L 150.773421 63.994824 
L 151.642979 63.541176 
L 152.481684 63.032748 
L 153.286091 62.471628 
L 154.052894 61.860123 
L 154.778943 61.200745 
L 155.461253 60.496204 
L 156.097022 59.749394 
L 156.683635 58.963385 
L 157.218684 58.141406 
L 157.699969 57.286836 
L 158.125513 56.403185 
L 158.493567 55.494085 
L 158.802618 54.563272 
L 159.051397 53.61457 
L 159.238881 52.651878 
L 159.3643 51.679152 
L 159.427139 50.700389 
L 159.427139 49.719611 
L 159.3643 48.740848 
L 159.238881 47.768122 
L 159.051397 46.80543 
L 158.802618 45.856728 
L 158.493567 44.925915 
L 158.125513 44.016815 
L 157.699969 43.133164 
L 157.218684 42.278594 
L 156.683635 41.456615 
L 156.097022 40.670606 
L 155.461253 39.923796 
L 154.778943 39.219255 
L 154.052894 38.559877 
L 153.286091 37.948372 
L 152.481684 37.387252 
L 151.642979 36.878824 
L 150.773421 36.425176 
L 149.876585 36.028174 
L 148.956156 35.689447 
L 148.015915 35.410389 
L 147.059727 35.192145 
L 146.091521 35.035613 
L 145.115274 34.941435 
L 144.135 34.91 
L 144.135 34.91 
L 124.245 34.91 
L 124.245 50.21 
L 124.245 65.51 
L 144.135 65.51 
" clip-path="url(#pad093230ec)" style="fill: none; stroke: #000000; stroke-width: 2; stroke-linecap: round"/>
   </g>
   <g id="line2d_14">
    <path d="M 113.535 57.86 
L 124.245 57.86 
" clip-path="url(#pad093230ec)" style="fill: none; stroke: #000000; stroke-width: 2; stroke-linecap: round"/>
   </g>
   <g id="line2d_15">
    <path d="M 113.535 42.56 
L 124.245 42.56 
" clip-path="url(#pad093230ec)" style="fill: none; stroke: #000000; stroke-width: 2; stroke-linecap: round"/>
   </g>
   <g id="line2d_16">
    <path d="M 159.435 50.21 
L 170.145 50.21 
" clip-path="url(#pad093230ec)" style="fill: none; stroke: #000000; stroke-width: 2; stroke-linecap: round"/>
   </g>
   <g id="line2d_17">
    <path d="M 200.745 73.16 
L 201.725274 73.128565 
L 202.701521 73.034387 
L 203.669727 72.877855 
L 204.625915 72.659611 
L 205.566156 72.380553 
L 206.486585 72.041826 
L 207.383421 71.644824 
L 208.252979 71.191176 
L 209.091684 70.682748 
L 209.896091 70.121628 
L 210.662894 69.510123 
L 211.388943 68.850745 
L 212.071253 68.146204 
L 212.707022 67.399394 
L 213.293635 66.613385 
L 213.828684 65.791406 
L 214.309969 64.936836 
L 214.735513 64.053185 
L 215.103567 63.144085 
L 215.412618 62.213272 
L 215.661397 61.26457 
L 215.848881 60.301878 
L 215.9743 59.329152 
L 216.037139 58.350389 
L 216.037139 57.369611 
L 215.9743 56.390848 
L 215.848881 55.418122 
L 215.661397 54.45543 
L 215.412618 53.506728 
L 215.103567 52.575915 
L 214.735513 51.666815 
L 214.309969 50.783164 
L 213.828684 49.928594 
L 213.293635 49.106615 
L 212.707022 48.320606 
L 212.071253 47.573796 
L 211.388943 46.869255 
L 210.662894 46.209877 
L 209.896091 45.598372 
L 209.091684 45.037252 
L 208.252979 44.528824 
L 207.383421 44.075176 
L 206.486585 43.678174 
L 205.566156 43.339447 
L 204.625915 43.060389 
L 203.669727 42.842145 
L 202.701521 42.685613 
L 201.725274 42.591435 
L 200.745 42.56 
L 200.745 42.56 
L 180.855 42.56 
L 180.855 57.86 
L 180.855 73.16 
L 200.745 73.16 
" clip-path="url(#pad093230ec)" style="fill: none; stroke: #000000; stroke-width: 2; stroke-linecap: round"/>
   </g>
   <g id="line2d_18">
    <path d="M 170.145 65.51 
L 180.855 65.51 
" clip-path="url(#pad093230ec)" style="fill: none; stroke: #000000; stroke-width: 2; stroke-linecap: round"/>
   </g>
   <g id="line2d_19">
    <path d="M 170.145 50.21 
L 180.855 50.21 
" clip-path="url(#pad093230ec)" style="fill: none; stroke: #000000; stroke-width: 2; stroke-linecap: round"/>
   </g>
   <g id="line2d_20">
    <path d="M 223.389 57.86 
L 226.755 57.86 
" clip-path="url(#pad093230ec)" style="fill: none; stroke: #000000; stroke-width: 2; stroke-linecap: round"/>
   </g>
   <g id="line2d_21">
    <path d="M 200.745 73.16 
L 201.725274 73.128565 
L 202.701521 73.034387 
L 203.669727 72.877855 
L 204.625915 72.659611 
L 205.566156 72.380553 
L 206.486585 72.041826 
L 207.383421 71.644824 
L 208.252979 71.191176 
L 209.091684 70.682748 
L 209.896091 70.121628 
L 210.662894 69.510123 
L 211.388943 68.850745 
L 212.071253 68.146204 
L 212.707022 67.399394 
L 213.293635 66.613385 
L 213.828684 65.791406 
L 214.309969 64.936836 
L 214.735513 64.053185 
L 215.103567 63.144085 
L 215.412618 62.213272 
L 215.661397 61.26457 
L 215.848881 60.301878 
L 215.9743 59.329152 
L 216.037139 58.350389 
L 216.037139 57.369611 
L 215.9743 56.390848 
L 215.848881 55.418122 
L 215.661397 54.45543 
L 215.412618 53.506728 
L 215.103567 52.575915 
L 214.735513 51.666815 
L 214.309969 50.783164 
L 213.828684 49.928594 
L 213.293635 49.106615 
L 212.707022 48.320606 
L 212.071253 47.573796 
L 211.388943 46.869255 
L 210.662894 46.209877 
L 209.896091 45.598372 
L 209.091684 45.037252 
L 208.252979 44.528824 
L 207.383421 44.075176 
L 206.486585 43.678174 
L 205.566156 43.339447 
L 204.625915 43.060389 
L 203.669727 42.842145 
L 202.701521 42.685613 
L 201.725274 42.591435 
L 200.745 42.56 
L 200.745 42.56 
L 180.855 42.56 
L 180.855 57.86 
L 180.855 73.16 
L 200.745 73.16 
" clip-path="url(#pad093230ec)" style="fill: none; stroke: #000000; stroke-width: 2; stroke-linecap: round"/>
   </g>
   <g id="line2d_22">
    <path d="M 170.145 65.51 
L 180.855 65.51 
" clip-path="url(#pad093230ec)" style="fill: none; stroke: #000000; stroke-width: 2; stroke-linecap: round"/>
   </g>
   <g id="line2d_23">
    <path d="M 170.145 50.21 
L 180.855 50.21 
" clip-path="url(#pad093230ec)" style="fill: none; stroke: #000000; stroke-width: 2; stroke-linecap: round"/>
   </g>
   <g id="line2d_24">
    <path d="M 223.389 57.86 
L 226.755 57.86 
" clip-path="url(#pad093230ec)" style="fill: none; stroke: #000000; stroke-width: 2; stroke-linecap: round"/>
   </g>
   <g id="line2d_25">
    <path d="M 56.925 65.51 
L 56.925 80.81 
L 170.145 80.81 
L 170.145 65.51 
" clip-path="url(#pad093230ec)" style="fill: none; stroke: #000000; stroke-width: 2; stroke-linecap: round"/>
   </g>
   <g id="line2d_26">
    <path d="M 257.355 65.51 
L 258.335274 65.478565 
L 259.311521 65.384387 
L 260.279727 65.227855 
L 261.235915 65.009611 
L 262.176156 64.730553 
L 263.096585 64.391826 
L 263.993421 63.994824 
L 264.862979 63.541176 
L 265.701684 63.032748 
L 266.506091 62.471628 
L 267.272894 61.860123 
L 267.998943 61.200745 
L 268.681253 60.496204 
L 269.317022 59.749394 
L 269.903635 58.963385 
L 270.438684 58.141406 
L 270.919969 57.286836 
L 271.345513 56.403185 
L 271.713567 55.494085 
L 272.022618 54.563272 
L 272.271397 53.61457 
L 272.458881 52.651878 
L 272.5843 51.679152 
L 272.647139 50.700389 
L 272.647139 49.719611 
L 272.5843 48.740848 
L 272.458881 47.768122 
L 272.271397 46.80543 
L 272.022618 45.856728 
L 271.713567 44.925915 
L 271.345513 44.016815 
L 270.919969 43.133164 
L 270.438684 42.278594 
L 269.903635 41.456615 
L 269.317022 40.670606 
L 268.681253 39.923796 
L 267.998943 39.219255 
L 267.272894 38.559877 
L 266.506091 37.948372 
L 265.701684 37.387252 
L 264.862979 36.878824 
L 263.993421 36.425176 
L 263.096585 36.028174 
L 262.176156 35.689447 
L 261.235915 35.410389 
L 260.279727 35.192145 
L 259.311521 35.035613 
L 258.335274 34.941435 
L 257.355 34.91 
L 257.355 34.91 
L 237.465 34.91 
L 237.465 50.21 
L 237.465 65.51 
L 257.355 65.51 
" clip-path="url(#pad093230ec)" style="fill: none; stroke: #000000; stroke-width: 2; stroke-linecap: round"/>
   </g>
   <g id="line2d_27">
    <path d="M 226.755 57.86 
L 237.465 57.86 
" clip-path="url(#pad093230ec)" style="fill: none; stroke: #000000; stroke-width: 2; stroke-linecap: round"/>
   </g>
   <g id="line2d_28">
    <path d="M 226.755 42.56 
L 237.465 42.56 
" clip-path="url(#pad093230ec)" style="fill: none; stroke: #000000; stroke-width: 2; stroke-linecap: round"/>
   </g>
   <g id="line2d_29">
    <path d="M 272.655 50.21 
L 283.365 50.21 
" clip-path="url(#pad093230ec)" style="fill: none; stroke: #000000; stroke-width: 2; stroke-linecap: round"/>
   </g>
   <g id="line2d_30">
    <path d="M 257.355 65.51 
L 258.335274 65.478565 
L 259.311521 65.384387 
L 260.279727 65.227855 
L 261.235915 65.009611 
L 262.176156 64.730553 
L 263.096585 64.391826 
L 263.993421 63.994824 
L 264.862979 63.541176 
L 265.701684 63.032748 
L 266.506091 62.471628 
L 267.272894 61.860123 
L 267.998943 61.200745 
L 268.681253 60.496204 
L 269.317022 59.749394 
L 269.903635 58.963385 
L 270.438684 58.141406 
L 270.919969 57.286836 
L 271.345513 56.403185 
L 271.713567 55.494085 
L 272.022618 54.563272 
L 272.271397 53.61457 
L 272.458881 52.651878 
L 272.5843 51.679152 
L 272.647139 50.700389 
L 272.647139 49.719611 
L 272.5843 48.740848 
L 272.458881 47.768122 
L 272.271397 46.80543 
L 272.022618 45.856728 
L 271.713567 44.925915 
L 271.345513 44.016815 
L 270.919969 43.133164 
L 270.438684 42.278594 
L 269.903635 41.456615 
L 269.317022 40.670606 
L 268.681253 39.923796 
L 267.998943 39.219255 
L 267.272894 38.559877 
L 266.506091 37.948372 
L 265.701684 37.387252 
L 264.862979 36.878824 
L 263.993421 36.425176 
L 263.096585 36.028174 
L 262.176156 35.689447 
L 261.235915 35.410389 
L 260.279727 35.192145 
L 259.311521 35.035613 
L 258.335274 34.941435 
L 257.355 34.91 
L 257.355 34.91 
L 237.465 34.91 
L 237.465 50.21 
L 237.465 65.51 
L 257.355 65.51 
" clip-path="url(#pad093230ec)" style="fill: none; stroke: #000000; stroke-width: 2; stroke-linecap: round"/>
   </g>
   <g id="line2d_31">
    <path d="M 226.755 57.86 
L 237.465 57.86 
" clip-path="url(#pad093230ec)" style="fill: none; stroke: #000000; stroke-width: 2; stroke-linecap: round"/>
   </g>
   <g id="line2d_32">
    <path d="M 226.755 42.56 
L 237.465 42.56 
" clip-path="url(#pad093230ec)" style="fill: none; stroke: #000000; stroke-width: 2; stroke-linecap: round"/>
   </g>
   <g id="line2d_33">
    <path d="M 272.655 50.21 
L 283.365 50.21 
" clip-path="url(#pad093230ec)" style="fill: none; stroke: #000000; stroke-width: 2; stroke-linecap: round"/>
   </g>
   <g id="line2d_34">
    <path d="M 313.965 73.16 
L 314.945274 73.128565 
L 315.921521 73.034387 
L 316.889727 72.877855 
L 317.845915 72.659611 
L 318.786156 72.380553 
L 319.706585 72.041826 
L 320.603421 71.644824 
L 321.472979 71.191176 
L 322.311684 70.682748 
L 323.116091 70.121628 
L 323.882894 69.510123 
L 324.608943 68.850745 
L 325.291253 68.146204 
L 325.927022 67.399394 
L 326.513635 66.613385 
L 327.048684 65.791406 
L 327.529969 64.936836 
L 327.955513 64.053185 
L 328.323567 63.144085 
L 328.632618 62.213272 
L 328.881397 61.26457 
L 329.068881 60.301878 
L 329.1943 59.329152 
L 329.257139 58.350389 
L 329.257139 57.369611 
L 329.1943 56.390848 
L 329.068881 55.418122 
L 328.881397 54.45543 
L 328.632618 53.506728 
L 328.323567 52.575915 
L 327.955513 51.666815 
L 327.529969 50.783164 
L 327.048684 49.928594 
L 326.513635 49.106615 
L 325.927022 48.320606 
L 325.291253 47.573796 
L 324.608943 46.869255 
L 323.882894 46.209877 
L 323.116091 45.598372 
L 322.311684 45.037252 
L 321.472979 44.528824 
L 320.603421 44.075176 
L 319.706585 43.678174 
L 318.786156 43.339447 
L 317.845915 43.060389 
L 316.889727 42.842145 
L 315.921521 42.685613 
L 314.945274 42.591435 
L 313.965 42.56 
L 313.965 42.56 
L 294.075 42.56 
L 294.075 57.86 
L 294.075 73.16 
L 313.965 73.16 
" clip-path="url(#pad093230ec)" style="fill: none; stroke: #000000; stroke-width: 2; stroke-linecap: round"/>
   </g>
   <g id="line2d_35">
    <path d="M 283.365 65.51 
L 294.075 65.51 
" clip-path="url(#pad093230ec)" style="fill: none; stroke: #000000; stroke-width: 2; stroke-linecap: round"/>
   </g>
   <g id="line2d_36">
    <path d="M 283.365 50.21 
L 294.075 50.21 
" clip-path="url(#pad093230ec)" style="fill: none; stroke: #000000; stroke-width: 2; stroke-linecap: round"/>
   </g>
   <g id="line2d_37">
    <path d="M 336.609 57.86 
L 339.975 57.86 
" clip-path="url(#pad093230ec)" style="fill: none; stroke: #000000; stroke-width: 2; stroke-linecap: round"/>
   </g>
   <g id="line2d_38">
    <path d="M 313.965 73.16 
L 314.945274 73.128565 
L 315.921521 73.034387 
L 316.889727 72.877855 
L 317.845915 72.659611 
L 318.786156 72.380553 
L 319.706585 72.041826 
L 320.603421 71.644824 
L 321.472979 71.191176 
L 322.311684 70.682748 
L 323.116091 70.121628 
L 323.882894 69.510123 
L 324.608943 68.850745 
L 325.291253 68.146204 
L 325.927022 67.399394 
L 326.513635 66.613385 
L 327.048684 65.791406 
L 327.529969 64.936836 
L 327.955513 64.053185 
L 328.323567 63.144085 
L 328.632618 62.213272 
L 328.881397 61.26457 
L 329.068881 60.301878 
L 329.1943 59.329152 
L 329.257139 58.350389 
L 329.257139 57.369611 
L 329.1943 56.390848 
L 329.068881 55.418122 
L 328.881397 54.45543 
L 328.632618 53.506728 
L 328.323567 52.575915 
L 327.955513 51.666815 
L 327.529969 50.783164 
L 327.048684 49.928594 
L 326.513635 49.106615 
L 325.927022 48.320606 
L 325.291253 47.573796 
L 324.608943 46.869255 
L 323.882894 46.209877 
L 323.116091 45.598372 
L 322.311684 45.037252 
L 321.472979 44.528824 
L 320.603421 44.075176 
L 319.706585 43.678174 
L 318.786156 43.339447 
L 317.845915 43.060389 
L 316.889727 42.842145 
L 315.921521 42.685613 
L 314.945274 42.591435 
L 313.965 42.56 
L 313.965 42.56 
L 294.075 42.56 
L 294.075 57.86 
L 294.075 73.16 
L 313.965 73.16 
" clip-path="url(#pad093230ec)" style="fill: none; stroke: #000000; stroke-width: 2; stroke-linecap: round"/>
   </g>
   <g id="line2d_39">
    <path d="M 283.365 65.51 
L 294.075 65.51 
" clip-path="url(#pad093230ec)" style="fill: none; stroke: #000000; stroke-width: 2; stroke-linecap: round"/>
   </g>
   <g id="line2d_40">
    <path d="M 283.365 50.21 
L 294.075 50.21 
" clip-path="url(#pad093230ec)" style="fill: none; stroke: #000000; stroke-width: 2; stroke-linecap: round"/>
   </g>
   <g id="line2d_41">
    <path d="M 336.609 57.86 
L 339.975 57.86 
" clip-path="url(#pad093230ec)" style="fill: none; stroke: #000000; stroke-width: 2; stroke-linecap: round"/>
   </g>
   <g id="line2d_42">
    <path d="M 56.925 65.51 
L 56.925 80.81 
L 283.365 80.81 
L 283.365 65.51 
" clip-path="url(#pad093230ec)" style="fill: none; stroke: #000000; stroke-width: 2; stroke-linecap: round"/>
   </g>
   <g id="line2d_43">
    <path d="M 370.575 65.51 
L 371.555274 65.478565 
L 372.531521 65.384387 
L 373.499727 65.227855 
L 374.455915 65.009611 
L 375.396156 64.730553 
L 376.316585 64.391826 
L 377.213421 63.994824 
L 378.082979 63.541176 
L 378.921684 63.032748 
L 379.726091 62.471628 
L 380.492894 61.860123 
L 381.218943 61.200745 
L 381.901253 60.496204 
L 382.537022 59.749394 
L 383.123635 58.963385 
L 383.658684 58.141406 
L 384.139969 57.286836 
L 384.565513 56.403185 
L 384.933567 55.494085 
L 385.242618 54.563272 
L 385.491397 53.61457 
L 385.678881 52.651878 
L 385.8043 51.679152 
L 385.867139 50.700389 
L 385.867139 49.719611 
L 385.8043 48.740848 
L 385.678881 47.768122 
L 385.491397 46.80543 
L 385.242618 45.856728 
L 384.933567 44.925915 
L 384.565513 44.016815 
L 384.139969 43.133164 
L 383.658684 42.278594 
L 383.123635 41.456615 
L 382.537022 40.670606 
L 381.901253 39.923796 
L 381.218943 39.219255 
L 380.492894 38.559877 
L 379.726091 37.948372 
L 378.921684 37.387252 
L 378.082979 36.878824 
L 377.213421 36.425176 
L 376.316585 36.028174 
L 375.396156 35.689447 
L 374.455915 35.410389 
L 373.499727 35.192145 
L 372.531521 35.035613 
L 371.555274 34.941435 
L 370.575 34.91 
L 370.575 34.91 
L 350.685 34.91 
L 350.685 50.21 
L 350.685 65.51 
L 370.575 65.51 
" clip-path="url(#pad093230ec)" style="fill: none; stroke: #000000; stroke-width: 2; stroke-linecap: round"/>
   </g>
   <g id="line2d_44">
    <path d="M 339.975 57.86 
L 350.685 57.86 
" clip-path="url(#pad093230ec)" style="fill: none; stroke: #000000; stroke-width: 2; stroke-linecap: round"/>
   </g>
   <g id="line2d_45">
    <path d="M 339.975 42.56 
L 350.685 42.56 
" clip-path="url(#pad093230ec)" style="fill: none; stroke: #000000; stroke-width: 2; stroke-linecap: round"/>
   </g>
   <g id="line2d_46">
    <path d="M 385.875 50.21 
L 396.585 50.21 
" clip-path="url(#pad093230ec)" style="fill: none; stroke: #000000; stroke-width: 2; stroke-linecap: round"/>
   </g>
   <g id="line2d_47">
    <path d="M 370.575 65.51 
L 371.555274 65.478565 
L 372.531521 65.384387 
L 373.499727 65.227855 
L 374.455915 65.009611 
L 375.396156 64.730553 
L 376.316585 64.391826 
L 377.213421 63.994824 
L 378.082979 63.541176 
L 378.921684 63.032748 
L 379.726091 62.471628 
L 380.492894 61.860123 
L 381.218943 61.200745 
L 381.901253 60.496204 
L 382.537022 59.749394 
L 383.123635 58.963385 
L 383.658684 58.141406 
L 384.139969 57.286836 
L 384.565513 56.403185 
L 384.933567 55.494085 
L 385.242618 54.563272 
L 385.491397 53.61457 
L 385.678881 52.651878 
L 385.8043 51.679152 
L 385.867139 50.700389 
L 385.867139 49.719611 
L 385.8043 48.740848 
L 385.678881 47.768122 
L 385.491397 46.80543 
L 385.242618 45.856728 
L 384.933567 44.925915 
L 384.565513 44.016815 
L 384.139969 43.133164 
L 383.658684 42.278594 
L 383.123635 41.456615 
L 382.537022 40.670606 
L 381.901253 39.923796 
L 381.218943 39.219255 
L 380.492894 38.559877 
L 379.726091 37.948372 
L 378.921684 37.387252 
L 378.082979 36.878824 
L 377.213421 36.425176 
L 376.316585 36.028174 
L 375.396156 35.689447 
L 374.455915 35.410389 
L 373.499727 35.192145 
L 372.531521 35.035613 
L 371.555274 34.941435 
L 370.575 34.91 
L 370.575 34.91 
L 350.685 34.91 
L 350.685 50.21 
L 350.685 65.51 
L 370.575 65.51 
" clip-path="url(#pad093230ec)" style="fill: none; stroke: #000000; stroke-width: 2; stroke-linecap: round"/>
   </g>
   <g id="line2d_48">
    <path d="M 339.975 57.86 
L 350.685 57.86 
" clip-path="url(#pad093230ec)" style="fill: none; stroke: #000000; stroke-width: 2; stroke-linecap: round"/>
   </g>
   <g id="line2d_49">
    <path d="M 339.975 42.56 
L 350.685 42.56 
" clip-path="url(#pad093230ec)" style="fill: none; stroke: #000000; stroke-width: 2; stroke-linecap: round"/>
   </g>
   <g id="line2d_50">
    <path d="M 385.875 50.21 
L 396.585 50.21 
" clip-path="url(#pad093230ec)" style="fill: none; stroke: #000000; stroke-width: 2; stroke-linecap: round"/>
   </g>
   <g id="line2d_51">
    <path d="M 427.185 73.16 
L 428.165274 73.128565 
L 429.141521 73.034387 
L 430.109727 72.877855 
L 431.065915 72.659611 
L 432.006156 72.380553 
L 432.926585 72.041826 
L 433.823421 71.644824 
L 434.692979 71.191176 
L 435.531684 70.682748 
L 436.336091 70.121628 
L 437.102894 69.510123 
L 437.828943 68.850745 
L 438.511253 68.146204 
L 439.147022 67.399394 
L 439.733635 66.613385 
L 440.268684 65.791406 
L 440.749969 64.936836 
L 441.175513 64.053185 
L 441.543567 63.144085 
L 441.852618 62.213272 
L 442.101397 61.26457 
L 442.288881 60.301878 
L 442.4143 59.329152 
L 442.477139 58.350389 
L 442.477139 57.369611 
L 442.4143 56.390848 
L 442.288881 55.418122 
L 442.101397 54.45543 
L 441.852618 53.506728 
L 441.543567 52.575915 
L 441.175513 51.666815 
L 440.749969 50.783164 
L 440.268684 49.928594 
L 439.733635 49.106615 
L 439.147022 48.320606 
L 438.511253 47.573796 
L 437.828943 46.869255 
L 437.102894 46.209877 
L 436.336091 45.598372 
L 435.531684 45.037252 
L 434.692979 44.528824 
L 433.823421 44.075176 
L 432.926585 43.678174 
L 432.006156 43.339447 
L 431.065915 43.060389 
L 430.109727 42.842145 
L 429.141521 42.685613 
L 428.165274 42.591435 
L 427.185 42.56 
L 427.185 42.56 
L 407.295 42.56 
L 407.295 57.86 
L 407.295 73.16 
L 427.185 73.16 
" clip-path="url(#pad093230ec)" style="fill: none; stroke: #000000; stroke-width: 2; stroke-linecap: round"/>
   </g>
   <g id="line2d_52">
    <path d="M 396.585 65.51 
L 407.295 65.51 
" clip-path="url(#pad093230ec)" style="fill: none; stroke: #000000; stroke-width: 2; stroke-linecap: round"/>
   </g>
   <g id="line2d_53">
    <path d="M 396.585 50.21 
L 407.295 50.21 
" clip-path="url(#pad093230ec)" style="fill: none; stroke: #000000; stroke-width: 2; stroke-linecap: round"/>
   </g>
   <g id="line2d_54">
    <path d="M 449.829 57.86 
L 453.195 57.86 
" clip-path="url(#pad093230ec)" style="fill: none; stroke: #000000; stroke-width: 2; stroke-linecap: round"/>
   </g>
   <g id="line2d_55">
    <path d="M 427.185 73.16 
L 428.165274 73.128565 
L 429.141521 73.034387 
L 430.109727 72.877855 
L 431.065915 72.659611 
L 432.006156 72.380553 
L 432.926585 72.041826 
L 433.823421 71.644824 
L 434.692979 71.191176 
L 435.531684 70.682748 
L 436.336091 70.121628 
L 437.102894 69.510123 
L 437.828943 68.850745 
L 438.511253 68.146204 
L 439.147022 67.399394 
L 439.733635 66.613385 
L 440.268684 65.791406 
L 440.749969 64.936836 
L 441.175513 64.053185 
L 441.543567 63.144085 
L 441.852618 62.213272 
L 442.101397 61.26457 
L 442.288881 60.301878 
L 442.4143 59.329152 
L 442.477139 58.350389 
L 442.477139 57.369611 
L 442.4143 56.390848 
L 442.288881 55.418122 
L 442.101397 54.45543 
L 441.852618 53.506728 
L 441.543567 52.575915 
L 441.175513 51.666815 
L 440.749969 50.783164 
L 440.268684 49.928594 
L 439.733635 49.106615 
L 439.147022 48.320606 
L 438.511253 47.573796 
L 437.828943 46.869255 
L 437.102894 46.209877 
L 436.336091 45.598372 
L 435.531684 45.037252 
L 434.692979 44.528824 
L 433.823421 44.075176 
L 432.926585 43.678174 
L 432.006156 43.339447 
L 431.065915 43.060389 
L 430.109727 42.842145 
L 429.141521 42.685613 
L 428.165274 42.591435 
L 427.185 42.56 
L 427.185 42.56 
L 407.295 42.56 
L 407.295 57.86 
L 407.295 73.16 
L 427.185 73.16 
" clip-path="url(#pad093230ec)" style="fill: none; stroke: #000000; stroke-width: 2; stroke-linecap: round"/>
   </g>
   <g id="line2d_56">
    <path d="M 396.585 65.51 
L 407.295 65.51 
" clip-path="url(#pad093230ec)" style="fill: none; stroke: #000000; stroke-width: 2; stroke-linecap: round"/>
   </g>
   <g id="line2d_57">
    <path d="M 396.585 50.21 
L 407.295 50.21 
" clip-path="url(#pad093230ec)" style="fill: none; stroke: #000000; stroke-width: 2; stroke-linecap: round"/>
   </g>
   <g id="line2d_58">
    <path d="M 449.829 57.86 
L 453.195 57.86 
" clip-path="url(#pad093230ec)" style="fill: none; stroke: #000000; stroke-width: 2; stroke-linecap: round"/>
   </g>
   <g id="line2d_59">
    <path d="M 56.925 65.51 
L 56.925 80.81 
L 396.585 80.81 
L 396.585 65.51 
" clip-path="url(#pad093230ec)" style="fill: none; stroke: #000000; stroke-width: 2; stroke-linecap: round"/>
   </g>
   <g id="line2d_60">
    <path d="M 483.795 80.81 
L 484.775274 80.778565 
L 485.751521 80.684387 
L 486.719727 80.527855 
L 487.675915 80.309611 
L 488.616156 80.030553 
L 489.536585 79.691826 
L 490.433421 79.294824 
L 491.302979 78.841176 
L 492.141684 78.332748 
L 492.946091 77.771628 
L 493.712894 77.160123 
L 494.438943 76.500745 
L 495.121253 75.796204 
L 495.757022 75.049394 
L 496.343635 74.263385 
L 496.878684 73.441406 
L 497.359969 72.586836 
L 497.785513 71.703185 
L 498.153567 70.794085 
L 498.462618 69.863272 
L 498.711397 68.91457 
L 498.898881 67.951878 
L 499.0243 66.979152 
L 499.087139 66.000389 
L 499.087139 65.019611 
L 499.0243 64.040848 
L 498.898881 63.068122 
L 498.711397 62.10543 
L 498.462618 61.156728 
L 498.153567 60.225915 
L 497.785513 59.316815 
L 497.359969 58.433164 
L 496.878684 57.578594 
L 496.343635 56.756615 
L 495.757022 55.970606 
L 495.121253 55.223796 
L 494.438943 54.519255 
L 493.712894 53.859877 
L 492.946091 53.248372 
L 492.141684 52.687252 
L 491.302979 52.178824 
L 490.433421 51.725176 
L 489.536585 51.328174 
L 488.616156 50.989447 
L 487.675915 50.710389 
L 486.719727 50.492145 
L 485.751521 50.335613 
L 484.775274 50.241435 
L 483.795 50.21 
L 483.795 50.21 
L 463.905 50.21 
L 463.905 65.51 
L 463.905 80.81 
L 483.795 80.81 
" clip-path="url(#pad093230ec)" style="fill: none; stroke: #000000; stroke-width: 2; stroke-linecap: round"/>
   </g>
   <g id="line2d_61">
    <path d="M 453.195 73.16 
L 463.905 73.16 
" clip-path="url(#pad093230ec)" style="fill: none; stroke: #000000; stroke-width: 2; stroke-linecap: round"/>
   </g>
   <g id="line2d_62">
    <path d="M 453.195 57.86 
L 463.905 57.86 
" clip-path="url(#pad093230ec)" style="fill: none; stroke: #000000; stroke-width: 2; stroke-linecap: round"/>
   </g>
   <g id="line2d_63">
    <path d="M 506.439 65.51 
L 509.805 65.51 
" clip-path="url(#pad093230ec)" style="fill: none; stroke: #000000; stroke-width: 2; stroke-linecap: round"/>
   </g>
   <g id="line2d_64">
    <path d="M 483.795 80.81 
L 484.775274 80.778565 
L 485.751521 80.684387 
L 486.719727 80.527855 
L 487.675915 80.309611 
L 488.616156 80.030553 
L 489.536585 79.691826 
L 490.433421 79.294824 
L 491.302979 78.841176 
L 492.141684 78.332748 
L 492.946091 77.771628 
L 493.712894 77.160123 
L 494.438943 76.500745 
L 495.121253 75.796204 
L 495.757022 75.049394 
L 496.343635 74.263385 
L 496.878684 73.441406 
L 497.359969 72.586836 
L 497.785513 71.703185 
L 498.153567 70.794085 
L 498.462618 69.863272 
L 498.711397 68.91457 
L 498.898881 67.951878 
L 499.0243 66.979152 
L 499.087139 66.000389 
L 499.087139 65.019611 
L 499.0243 64.040848 
L 498.898881 63.068122 
L 498.711397 62.10543 
L 498.462618 61.156728 
L 498.153567 60.225915 
L 497.785513 59.316815 
L 497.359969 58.433164 
L 496.878684 57.578594 
L 496.343635 56.756615 
L 495.757022 55.970606 
L 495.121253 55.223796 
L 494.438943 54.519255 
L 493.712894 53.859877 
L 492.946091 53.248372 
L 492.141684 52.687252 
L 491.302979 52.178824 
L 490.433421 51.725176 
L 489.536585 51.328174 
L 488.616156 50.989447 
L 487.675915 50.710389 
L 486.719727 50.492145 
L 485.751521 50.335613 
L 484.775274 50.241435 
L 483.795 50.21 
L 483.795 50.21 
L 463.905 50.21 
L 463.905 65.51 
L 463.905 80.81 
L 483.795 80.81 
" clip-path="url(#pad093230ec)" style="fill: none; stroke: #000000; stroke-width: 2; stroke-linecap: round"/>
   </g>
   <g id="line2d_65">
    <path d="M 453.195 73.16 
L 463.905 73.16 
" clip-path="url(#pad093230ec)" style="fill: none; stroke: #000000; stroke-width: 2; stroke-linecap: round"/>
   </g>
   <g id="line2d_66">
    <path d="M 453.195 57.86 
L 463.905 57.86 
" clip-path="url(#pad093230ec)" style="fill: none; stroke: #000000; stroke-width: 2; stroke-linecap: round"/>
   </g>
   <g id="line2d_67">
    <path d="M 506.439 65.51 
L 509.805 65.51 
" clip-path="url(#pad093230ec)" style="fill: none; stroke: #000000; stroke-width: 2; stroke-linecap: round"/>
   </g>
   <g id="line2d_68">
    <path d="M 56.925 65.51 
L 56.925 80.81 
L 453.195 80.81 
L 453.195 73.16 
" clip-path="url(#pad093230ec)" style="fill: none; stroke: #000000; stroke-width: 2; stroke-linecap: round"/>
   </g>
   <g id="line2d_69">
    <path d="M 483.795 80.81 
L 484.775274 80.778565 
L 485.751521 80.684387 
L 486.719727 80.527855 
L 487.675915 80.309611 
L 488.616156 80.030553 
L 489.536585 79.691826 
L 490.433421 79.294824 
L 491.302979 78.841176 
L 492.141684 78.332748 
L 492.946091 77.771628 
L 493.712894 77.160123 
L 494.438943 76.500745 
L 495.121253 75.796204 
L 495.757022 75.049394 
L 496.343635 74.263385 
L 496.878684 73.441406 
L 497.359969 72.586836 
L 497.785513 71.703185 
L 498.153567 70.794085 
L 498.462618 69.863272 
L 498.711397 68.91457 
L 498.898881 67.951878 
L 499.0243 66.979152 
L 499.087139 66.000389 
L 499.087139 65.019611 
L 499.0243 64.040848 
L 498.898881 63.068122 
L 498.711397 62.10543 
L 498.462618 61.156728 
L 498.153567 60.225915 
L 497.785513 59.316815 
L 497.359969 58.433164 
L 496.878684 57.578594 
L 496.343635 56.756615 
L 495.757022 55.970606 
L 495.121253 55.223796 
L 494.438943 54.519255 
L 493.712894 53.859877 
L 492.946091 53.248372 
L 492.141684 52.687252 
L 491.302979 52.178824 
L 490.433421 51.725176 
L 489.536585 51.328174 
L 488.616156 50.989447 
L 487.675915 50.710389 
L 486.719727 50.492145 
L 485.751521 50.335613 
L 484.775274 50.241435 
L 483.795 50.21 
L 483.795 50.21 
L 463.905 50.21 
L 463.905 65.51 
L 463.905 80.81 
L 483.795 80.81 
" clip-path="url(#pad093230ec)" style="fill: none; stroke: #000000; stroke-width: 2; stroke-linecap: round"/>
   </g>
   <g id="line2d_70">
    <path d="M 453.195 73.16 
L 463.905 73.16 
" clip-path="url(#pad093230ec)" style="fill: none; stroke: #000000; stroke-width: 2; stroke-linecap: round"/>
   </g>
   <g id="line2d_71">
    <path d="M 453.195 57.86 
L 463.905 57.86 
" clip-path="url(#pad093230ec)" style="fill: none; stroke: #000000; stroke-width: 2; stroke-linecap: round"/>
   </g>
   <g id="line2d_72">
    <path d="M 506.439 65.51 
L 509.805 65.51 
" clip-path="url(#pad093230ec)" style="fill: none; stroke: #000000; stroke-width: 2; stroke-linecap: round"/>
   </g>
   <g id="text_1">
    <g clip-path="url(#pad093230ec)">
     <!-- 0.1999 -->
     <g transform="translate(10.126719 53.659219) scale(0.125 -0.125)">
      <defs>
       <path id="DejaVuSans-30" d="M 2034 4250 
Q 1547 4250 1301 3770 
Q 1056 3291 1056 2328 
Q 1056 1369 1301 889 
Q 1547 409 2034 409 
Q 2525 409 2770 889 
Q 3016 1369 3016 2328 
Q 3016 3291 2770 3770 
Q 2525 4250 2034 4250 
z
M 2034 4750 
Q 2819 4750 3233 4129 
Q 3647 3509 3647 2328 
Q 3647 1150 3233 529 
Q 2819 -91 2034 -91 
Q 1250 -91 836 529 
Q 422 1150 422 2328 
Q 422 3509 836 4129 
Q 1250 4750 2034 4750 
z
" transform="scale(0.015625)"/>
       <path id="DejaVuSans-2e" d="M 684 794 
L 1344 794 
L 1344 0 
L 684 0 
L 684 794 
z
" transform="scale(0.015625)"/>
       <path id="DejaVuSans-31" d="M 794 531 
L 1825 531 
L 1825 4091 
L 703 3866 
L 703 4441 
L 1819 4666 
L 2450 4666 
L 2450 531 
L 3481 531 
L 3481 0 
L 794 0 
L 794 531 
z
" transform="scale(0.015625)"/>
       <path id="DejaVuSans-39" d="M 703 97 
L 703 672 
Q 941 559 1184 500 
Q 1428 441 1663 441 
Q 2288 441 2617 861 
Q 2947 1281 2994 2138 
Q 2813 1869 2534 1725 
Q 2256 1581 1919 1581 
Q 1219 1581 811 2004 
Q 403 2428 403 3163 
Q 403 3881 828 4315 
Q 1253 4750 1959 4750 
Q 2769 4750 3195 4129 
Q 3622 3509 3622 2328 
Q 3622 1225 3098 567 
Q 2575 -91 1691 -91 
Q 1453 -91 1209 -44 
Q 966 3 703 97 
z
M 1959 2075 
Q 2384 2075 2632 2365 
Q 2881 2656 2881 3163 
Q 2881 3666 2632 3958 
Q 2384 4250 1959 4250 
Q 1534 4250 1286 3958 
Q 1038 3666 1038 3163 
Q 1038 2656 1286 2365 
Q 1534 2075 1959 2075 
z
" transform="scale(0.015625)"/>
      </defs>
      <use xlink:href="#DejaVuSans-30"/>
      <use xlink:href="#DejaVuSans-2e" x="63.623047"/>
      <use xlink:href="#DejaVuSans-31" x="95.410156"/>
      <use xlink:href="#DejaVuSans-39" x="159.033203"/>
      <use xlink:href="#DejaVuSans-39" x="222.65625"/>
      <use xlink:href="#DejaVuSans-39" x="286.279297"/>
     </g>
    </g>
   </g>
   <g id="text_2">
    <g clip-path="url(#pad093230ec)">
     <!-- X -->
     <g transform="translate(45.3025 68.959219) scale(0.125 -0.125)">
      <defs>
       <path id="DejaVuSans-58" d="M 403 4666 
L 1081 4666 
L 2241 2931 
L 3406 4666 
L 4084 4666 
L 2584 2425 
L 4184 0 
L 3506 0 
L 2194 1984 
L 872 0 
L 191 0 
L 1856 2491 
L 403 4666 
z
" transform="scale(0.015625)"/>
      </defs>
      <use xlink:href="#DejaVuSans-58"/>
     </g>
    </g>
   </g>
   <g id="text_3">
    <g clip-path="url(#pad093230ec)">
     <!-- 0.1999 -->
     <g transform="translate(10.126719 53.659219) scale(0.125 -0.125)">
      <use xlink:href="#DejaVuSans-30"/>
      <use xlink:href="#DejaVuSans-2e" x="63.623047"/>
      <use xlink:href="#DejaVuSans-31" x="95.410156"/>
      <use xlink:href="#DejaVuSans-39" x="159.033203"/>
      <use xlink:href="#DejaVuSans-39" x="222.65625"/>
      <use xlink:href="#DejaVuSans-39" x="286.279297"/>
     </g>
    </g>
   </g>
   <g id="text_4">
    <g clip-path="url(#pad093230ec)">
     <!-- X -->
     <g transform="translate(45.3025 68.959219) scale(0.125 -0.125)">
      <use xlink:href="#DejaVuSans-58"/>
     </g>
    </g>
   </g>
   <g id="text_5">
    <g clip-path="url(#pad093230ec)">
     <!-- G1 -->
     <g transform="translate(76.410664 58.249219) scale(0.125 -0.125)">
      <defs>
       <path id="DejaVuSans-47" d="M 3809 666 
L 3809 1919 
L 2778 1919 
L 2778 2438 
L 4434 2438 
L 4434 434 
Q 4069 175 3628 42 
Q 3188 -91 2688 -91 
Q 1594 -91 976 548 
Q 359 1188 359 2328 
Q 359 3472 976 4111 
Q 1594 4750 2688 4750 
Q 3144 4750 3555 4637 
Q 3966 4525 4313 4306 
L 4313 3634 
Q 3963 3931 3569 4081 
Q 3175 4231 2741 4231 
Q 1884 4231 1454 3753 
Q 1025 3275 1025 2328 
Q 1025 1384 1454 906 
Q 1884 428 2741 428 
Q 3075 428 3337 486 
Q 3600 544 3809 666 
z
" transform="scale(0.015625)"/>
      </defs>
      <use xlink:href="#DejaVuSans-47"/>
      <use xlink:href="#DejaVuSans-31" x="77.490234"/>
     </g>
    </g>
   </g>
   <g id="text_6">
    <g clip-path="url(#pad093230ec)">
     <!-- 0.1999 -->
     <g transform="translate(10.126719 53.659219) scale(0.125 -0.125)">
      <use xlink:href="#DejaVuSans-30"/>
      <use xlink:href="#DejaVuSans-2e" x="63.623047"/>
      <use xlink:href="#DejaVuSans-31" x="95.410156"/>
      <use xlink:href="#DejaVuSans-39" x="159.033203"/>
      <use xlink:href="#DejaVuSans-39" x="222.65625"/>
      <use xlink:href="#DejaVuSans-39" x="286.279297"/>
     </g>
    </g>
   </g>
   <g id="text_7">
    <g clip-path="url(#pad093230ec)">
     <!-- X -->
     <g transform="translate(45.3025 68.959219) scale(0.125 -0.125)">
      <use xlink:href="#DejaVuSans-58"/>
     </g>
    </g>
   </g>
   <g id="text_8">
    <g clip-path="url(#pad093230ec)">
     <!-- 0.1999 -->
     <g transform="translate(10.126719 53.659219) scale(0.125 -0.125)">
      <use xlink:href="#DejaVuSans-30"/>
      <use xlink:href="#DejaVuSans-2e" x="63.623047"/>
      <use xlink:href="#DejaVuSans-31" x="95.410156"/>
      <use xlink:href="#DejaVuSans-39" x="159.033203"/>
      <use xlink:href="#DejaVuSans-39" x="222.65625"/>
      <use xlink:href="#DejaVuSans-39" x="286.279297"/>
     </g>
    </g>
   </g>
   <g id="text_9">
    <g clip-path="url(#pad093230ec)">
     <!-- X -->
     <g transform="translate(45.3025 68.959219) scale(0.125 -0.125)">
      <use xlink:href="#DejaVuSans-58"/>
     </g>
    </g>
   </g>
   <g id="text_10">
    <g clip-path="url(#pad093230ec)">
     <!-- G1 -->
     <g transform="translate(76.410664 58.249219) scale(0.125 -0.125)">
      <use xlink:href="#DejaVuSans-47"/>
      <use xlink:href="#DejaVuSans-31" x="77.490234"/>
     </g>
    </g>
   </g>
   <g id="text_11">
    <g clip-path="url(#pad093230ec)">
     <!-- 0.2499 -->
     <g transform="translate(69.796719 30.709219) scale(0.125 -0.125)">
      <defs>
       <path id="DejaVuSans-32" d="M 1228 531 
L 3431 531 
L 3431 0 
L 469 0 
L 469 531 
Q 828 903 1448 1529 
Q 2069 2156 2228 2338 
Q 2531 2678 2651 2914 
Q 2772 3150 2772 3378 
Q 2772 3750 2511 3984 
Q 2250 4219 1831 4219 
Q 1534 4219 1204 4116 
Q 875 4013 500 3803 
L 500 4441 
Q 881 4594 1212 4672 
Q 1544 4750 1819 4750 
Q 2544 4750 2975 4387 
Q 3406 4025 3406 3419 
Q 3406 3131 3298 2873 
Q 3191 2616 2906 2266 
Q 2828 2175 2409 1742 
Q 1991 1309 1228 531 
z
" transform="scale(0.015625)"/>
       <path id="DejaVuSans-34" d="M 2419 4116 
L 825 1625 
L 2419 1625 
L 2419 4116 
z
M 2253 4666 
L 3047 4666 
L 3047 1625 
L 3713 1625 
L 3713 1100 
L 3047 1100 
L 3047 0 
L 2419 0 
L 2419 1100 
L 313 1100 
L 313 1709 
L 2253 4666 
z
" transform="scale(0.015625)"/>
      </defs>
      <use xlink:href="#DejaVuSans-30"/>
      <use xlink:href="#DejaVuSans-2e" x="63.623047"/>
      <use xlink:href="#DejaVuSans-32" x="95.410156"/>
      <use xlink:href="#DejaVuSans-34" x="159.033203"/>
      <use xlink:href="#DejaVuSans-39" x="222.65625"/>
      <use xlink:href="#DejaVuSans-39" x="286.279297"/>
     </g>
    </g>
   </g>
   <g id="text_12">
    <g clip-path="url(#pad093230ec)">
     <!-- 0.2499 -->
     <g transform="translate(69.796719 30.709219) scale(0.125 -0.125)">
      <use xlink:href="#DejaVuSans-30"/>
      <use xlink:href="#DejaVuSans-2e" x="63.623047"/>
      <use xlink:href="#DejaVuSans-32" x="95.410156"/>
      <use xlink:href="#DejaVuSans-34" x="159.033203"/>
      <use xlink:href="#DejaVuSans-39" x="222.65625"/>
      <use xlink:href="#DejaVuSans-39" x="286.279297"/>
     </g>
    </g>
   </g>
   <g id="text_13">
    <g clip-path="url(#pad093230ec)">
     <!-- G2 -->
     <g transform="translate(133.020664 50.599219) scale(0.125 -0.125)">
      <use xlink:href="#DejaVuSans-47"/>
      <use xlink:href="#DejaVuSans-32" x="77.490234"/>
     </g>
    </g>
   </g>
   <g id="text_14">
    <g clip-path="url(#pad093230ec)">
     <!-- 0.2499 -->
     <g transform="translate(69.796719 30.709219) scale(0.125 -0.125)">
      <use xlink:href="#DejaVuSans-30"/>
      <use xlink:href="#DejaVuSans-2e" x="63.623047"/>
      <use xlink:href="#DejaVuSans-32" x="95.410156"/>
      <use xlink:href="#DejaVuSans-34" x="159.033203"/>
      <use xlink:href="#DejaVuSans-39" x="222.65625"/>
      <use xlink:href="#DejaVuSans-39" x="286.279297"/>
     </g>
    </g>
   </g>
   <g id="text_15">
    <g clip-path="url(#pad093230ec)">
     <!-- 0.2499 -->
     <g transform="translate(69.796719 30.709219) scale(0.125 -0.125)">
      <use xlink:href="#DejaVuSans-30"/>
      <use xlink:href="#DejaVuSans-2e" x="63.623047"/>
      <use xlink:href="#DejaVuSans-32" x="95.410156"/>
      <use xlink:href="#DejaVuSans-34" x="159.033203"/>
      <use xlink:href="#DejaVuSans-39" x="222.65625"/>
      <use xlink:href="#DejaVuSans-39" x="286.279297"/>
     </g>
    </g>
   </g>
   <g id="text_16">
    <g clip-path="url(#pad093230ec)">
     <!-- G2 -->
     <g transform="translate(133.020664 50.599219) scale(0.125 -0.125)">
      <use xlink:href="#DejaVuSans-47"/>
      <use xlink:href="#DejaVuSans-32" x="77.490234"/>
     </g>
    </g>
   </g>
   <g id="text_17">
    <g clip-path="url(#pad093230ec)">
     <!-- G3 -->
     <g transform="translate(189.630664 58.249219) scale(0.125 -0.125)">
      <defs>
       <path id="DejaVuSans-33" d="M 2597 2516 
Q 3050 2419 3304 2112 
Q 3559 1806 3559 1356 
Q 3559 666 3084 287 
Q 2609 -91 1734 -91 
Q 1441 -91 1130 -33 
Q 819 25 488 141 
L 488 750 
Q 750 597 1062 519 
Q 1375 441 1716 441 
Q 2309 441 2620 675 
Q 2931 909 2931 1356 
Q 2931 1769 2642 2001 
Q 2353 2234 1838 2234 
L 1294 2234 
L 1294 2753 
L 1863 2753 
Q 2328 2753 2575 2939 
Q 2822 3125 2822 3475 
Q 2822 3834 2567 4026 
Q 2313 4219 1838 4219 
Q 1578 4219 1281 4162 
Q 984 4106 628 3988 
L 628 4550 
Q 988 4650 1302 4700 
Q 1616 4750 1894 4750 
Q 2613 4750 3031 4423 
Q 3450 4097 3450 3541 
Q 3450 3153 3228 2886 
Q 3006 2619 2597 2516 
z
" transform="scale(0.015625)"/>
      </defs>
      <use xlink:href="#DejaVuSans-47"/>
      <use xlink:href="#DejaVuSans-33" x="77.490234"/>
     </g>
    </g>
   </g>
   <g id="text_18">
    <g clip-path="url(#pad093230ec)">
     <!-- G3 -->
     <g transform="translate(189.630664 58.249219) scale(0.125 -0.125)">
      <use xlink:href="#DejaVuSans-47"/>
      <use xlink:href="#DejaVuSans-33" x="77.490234"/>
     </g>
    </g>
   </g>
   <g id="text_19">
    <g clip-path="url(#pad093230ec)">
     <!-- 0.3333 -->
     <g transform="translate(183.016719 30.709219) scale(0.125 -0.125)">
      <use xlink:href="#DejaVuSans-30"/>
      <use xlink:href="#DejaVuSans-2e" x="63.623047"/>
      <use xlink:href="#DejaVuSans-33" x="95.410156"/>
      <use xlink:href="#DejaVuSans-33" x="159.033203"/>
      <use xlink:href="#DejaVuSans-33" x="222.65625"/>
      <use xlink:href="#DejaVuSans-33" x="286.279297"/>
     </g>
    </g>
   </g>
   <g id="text_20">
    <g clip-path="url(#pad093230ec)">
     <!-- 0.3333 -->
     <g transform="translate(183.016719 30.709219) scale(0.125 -0.125)">
      <use xlink:href="#DejaVuSans-30"/>
      <use xlink:href="#DejaVuSans-2e" x="63.623047"/>
      <use xlink:href="#DejaVuSans-33" x="95.410156"/>
      <use xlink:href="#DejaVuSans-33" x="159.033203"/>
      <use xlink:href="#DejaVuSans-33" x="222.65625"/>
      <use xlink:href="#DejaVuSans-33" x="286.279297"/>
     </g>
    </g>
   </g>
   <g id="text_21">
    <g clip-path="url(#pad093230ec)">
     <!-- G4 -->
     <g transform="translate(246.240664 50.599219) scale(0.125 -0.125)">
      <use xlink:href="#DejaVuSans-47"/>
      <use xlink:href="#DejaVuSans-34" x="77.490234"/>
     </g>
    </g>
   </g>
   <g id="text_22">
    <g clip-path="url(#pad093230ec)">
     <!-- 0.3333 -->
     <g transform="translate(183.016719 30.709219) scale(0.125 -0.125)">
      <use xlink:href="#DejaVuSans-30"/>
      <use xlink:href="#DejaVuSans-2e" x="63.623047"/>
      <use xlink:href="#DejaVuSans-33" x="95.410156"/>
      <use xlink:href="#DejaVuSans-33" x="159.033203"/>
      <use xlink:href="#DejaVuSans-33" x="222.65625"/>
      <use xlink:href="#DejaVuSans-33" x="286.279297"/>
     </g>
    </g>
   </g>
   <g id="text_23">
    <g clip-path="url(#pad093230ec)">
     <!-- 0.3333 -->
     <g transform="translate(183.016719 30.709219) scale(0.125 -0.125)">
      <use xlink:href="#DejaVuSans-30"/>
      <use xlink:href="#DejaVuSans-2e" x="63.623047"/>
      <use xlink:href="#DejaVuSans-33" x="95.410156"/>
      <use xlink:href="#DejaVuSans-33" x="159.033203"/>
      <use xlink:href="#DejaVuSans-33" x="222.65625"/>
      <use xlink:href="#DejaVuSans-33" x="286.279297"/>
     </g>
    </g>
   </g>
   <g id="text_24">
    <g clip-path="url(#pad093230ec)">
     <!-- G4 -->
     <g transform="translate(246.240664 50.599219) scale(0.125 -0.125)">
      <use xlink:href="#DejaVuSans-47"/>
      <use xlink:href="#DejaVuSans-34" x="77.490234"/>
     </g>
    </g>
   </g>
   <g id="text_25">
    <g clip-path="url(#pad093230ec)">
     <!-- G5 -->
     <g transform="translate(302.850664 58.249219) scale(0.125 -0.125)">
      <defs>
       <path id="DejaVuSans-35" d="M 691 4666 
L 3169 4666 
L 3169 4134 
L 1269 4134 
L 1269 2991 
Q 1406 3038 1543 3061 
Q 1681 3084 1819 3084 
Q 2600 3084 3056 2656 
Q 3513 2228 3513 1497 
Q 3513 744 3044 326 
Q 2575 -91 1722 -91 
Q 1428 -91 1123 -41 
Q 819 9 494 109 
L 494 744 
Q 775 591 1075 516 
Q 1375 441 1709 441 
Q 2250 441 2565 725 
Q 2881 1009 2881 1497 
Q 2881 1984 2565 2268 
Q 2250 2553 1709 2553 
Q 1456 2553 1204 2497 
Q 953 2441 691 2322 
L 691 4666 
z
" transform="scale(0.015625)"/>
      </defs>
      <use xlink:href="#DejaVuSans-47"/>
      <use xlink:href="#DejaVuSans-35" x="77.490234"/>
     </g>
    </g>
   </g>
   <g id="text_26">
    <g clip-path="url(#pad093230ec)">
     <!-- G5 -->
     <g transform="translate(302.850664 58.249219) scale(0.125 -0.125)">
      <use xlink:href="#DejaVuSans-47"/>
      <use xlink:href="#DejaVuSans-35" x="77.490234"/>
     </g>
    </g>
   </g>
   <g id="text_27">
    <g clip-path="url(#pad093230ec)">
     <!-- 0.5 -->
     <g transform="translate(320.096094 30.709219) scale(0.125 -0.125)">
      <use xlink:href="#DejaVuSans-30"/>
      <use xlink:href="#DejaVuSans-2e" x="63.623047"/>
      <use xlink:href="#DejaVuSans-35" x="95.410156"/>
     </g>
    </g>
   </g>
   <g id="text_28">
    <g clip-path="url(#pad093230ec)">
     <!-- 0.5 -->
     <g transform="translate(320.096094 30.709219) scale(0.125 -0.125)">
      <use xlink:href="#DejaVuSans-30"/>
      <use xlink:href="#DejaVuSans-2e" x="63.623047"/>
      <use xlink:href="#DejaVuSans-35" x="95.410156"/>
     </g>
    </g>
   </g>
   <g id="text_29">
    <g clip-path="url(#pad093230ec)">
     <!-- G6 -->
     <g transform="translate(359.460664 50.599219) scale(0.125 -0.125)">
      <defs>
       <path id="DejaVuSans-36" d="M 2113 2584 
Q 1688 2584 1439 2293 
Q 1191 2003 1191 1497 
Q 1191 994 1439 701 
Q 1688 409 2113 409 
Q 2538 409 2786 701 
Q 3034 994 3034 1497 
Q 3034 2003 2786 2293 
Q 2538 2584 2113 2584 
z
M 3366 4563 
L 3366 3988 
Q 3128 4100 2886 4159 
Q 2644 4219 2406 4219 
Q 1781 4219 1451 3797 
Q 1122 3375 1075 2522 
Q 1259 2794 1537 2939 
Q 1816 3084 2150 3084 
Q 2853 3084 3261 2657 
Q 3669 2231 3669 1497 
Q 3669 778 3244 343 
Q 2819 -91 2113 -91 
Q 1303 -91 875 529 
Q 447 1150 447 2328 
Q 447 3434 972 4092 
Q 1497 4750 2381 4750 
Q 2619 4750 2861 4703 
Q 3103 4656 3366 4563 
z
" transform="scale(0.015625)"/>
      </defs>
      <use xlink:href="#DejaVuSans-47"/>
      <use xlink:href="#DejaVuSans-36" x="77.490234"/>
     </g>
    </g>
   </g>
   <g id="text_30">
    <g clip-path="url(#pad093230ec)">
     <!-- 0.5 -->
     <g transform="translate(320.096094 30.709219) scale(0.125 -0.125)">
      <use xlink:href="#DejaVuSans-30"/>
      <use xlink:href="#DejaVuSans-2e" x="63.623047"/>
      <use xlink:href="#DejaVuSans-35" x="95.410156"/>
     </g>
    </g>
   </g>
   <g id="text_31">
    <g clip-path="url(#pad093230ec)">
     <!-- 0.5 -->
     <g transform="translate(320.096094 30.709219) scale(0.125 -0.125)">
      <use xlink:href="#DejaVuSans-30"/>
      <use xlink:href="#DejaVuSans-2e" x="63.623047"/>
      <use xlink:href="#DejaVuSans-35" x="95.410156"/>
     </g>
    </g>
   </g>
   <g id="text_32">
    <g clip-path="url(#pad093230ec)">
     <!-- G6 -->
     <g transform="translate(359.460664 50.599219) scale(0.125 -0.125)">
      <use xlink:href="#DejaVuSans-47"/>
      <use xlink:href="#DejaVuSans-36" x="77.490234"/>
     </g>
    </g>
   </g>
   <g id="text_33">
    <g clip-path="url(#pad093230ec)">
     <!-- G7 -->
     <g transform="translate(416.070664 58.249219) scale(0.125 -0.125)">
      <defs>
       <path id="DejaVuSans-37" d="M 525 4666 
L 3525 4666 
L 3525 4397 
L 1831 0 
L 1172 0 
L 2766 4134 
L 525 4134 
L 525 4666 
z
" transform="scale(0.015625)"/>
      </defs>
      <use xlink:href="#DejaVuSans-47"/>
      <use xlink:href="#DejaVuSans-37" x="77.490234"/>
     </g>
    </g>
   </g>
   <g id="text_34">
    <g clip-path="url(#pad093230ec)">
     <!-- G7 -->
     <g transform="translate(416.070664 58.249219) scale(0.125 -0.125)">
      <use xlink:href="#DejaVuSans-47"/>
      <use xlink:href="#DejaVuSans-37" x="77.490234"/>
     </g>
    </g>
   </g>
   <g id="text_35">
    <g clip-path="url(#pad093230ec)">
     <!-- G8 -->
     <g transform="translate(472.680664 65.899219) scale(0.125 -0.125)">
      <defs>
       <path id="DejaVuSans-38" d="M 2034 2216 
Q 1584 2216 1326 1975 
Q 1069 1734 1069 1313 
Q 1069 891 1326 650 
Q 1584 409 2034 409 
Q 2484 409 2743 651 
Q 3003 894 3003 1313 
Q 3003 1734 2745 1975 
Q 2488 2216 2034 2216 
z
M 1403 2484 
Q 997 2584 770 2862 
Q 544 3141 544 3541 
Q 544 4100 942 4425 
Q 1341 4750 2034 4750 
Q 2731 4750 3128 4425 
Q 3525 4100 3525 3541 
Q 3525 3141 3298 2862 
Q 3072 2584 2669 2484 
Q 3125 2378 3379 2068 
Q 3634 1759 3634 1313 
Q 3634 634 3220 271 
Q 2806 -91 2034 -91 
Q 1263 -91 848 271 
Q 434 634 434 1313 
Q 434 1759 690 2068 
Q 947 2378 1403 2484 
z
M 1172 3481 
Q 1172 3119 1398 2916 
Q 1625 2713 2034 2713 
Q 2441 2713 2670 2916 
Q 2900 3119 2900 3481 
Q 2900 3844 2670 4047 
Q 2441 4250 2034 4250 
Q 1625 4250 1398 4047 
Q 1172 3844 1172 3481 
z
" transform="scale(0.015625)"/>
      </defs>
      <use xlink:href="#DejaVuSans-47"/>
      <use xlink:href="#DejaVuSans-38" x="77.490234"/>
     </g>
    </g>
   </g>
   <g id="text_36">
    <g clip-path="url(#pad093230ec)">
     <!-- G8 -->
     <g transform="translate(472.680664 65.899219) scale(0.125 -0.125)">
      <use xlink:href="#DejaVuSans-47"/>
      <use xlink:href="#DejaVuSans-38" x="77.490234"/>
     </g>
    </g>
   </g>
   <g id="text_37">
    <g clip-path="url(#pad093230ec)">
     <!-- $f(X)$ -->
     <g transform="translate(512.865 68.959219) scale(0.125 -0.125)">
      <defs>
       <path id="DejaVuSans-Oblique-66" d="M 3059 4863 
L 2969 4384 
L 2419 4384 
Q 2106 4384 1964 4261 
Q 1822 4138 1753 3809 
L 1691 3500 
L 2638 3500 
L 2553 3053 
L 1606 3053 
L 1013 0 
L 434 0 
L 1031 3053 
L 481 3053 
L 563 3500 
L 1113 3500 
L 1159 3744 
Q 1278 4363 1576 4613 
Q 1875 4863 2516 4863 
L 3059 4863 
z
" transform="scale(0.015625)"/>
       <path id="DejaVuSans-28" d="M 1984 4856 
Q 1566 4138 1362 3434 
Q 1159 2731 1159 2009 
Q 1159 1288 1364 580 
Q 1569 -128 1984 -844 
L 1484 -844 
Q 1016 -109 783 600 
Q 550 1309 550 2009 
Q 550 2706 781 3412 
Q 1013 4119 1484 4856 
L 1984 4856 
z
" transform="scale(0.015625)"/>
       <path id="DejaVuSans-Oblique-58" d="M 878 4666 
L 1516 4666 
L 2316 2981 
L 3763 4666 
L 4500 4666 
L 2578 2438 
L 3738 0 
L 3103 0 
L 2163 1966 
L 459 0 
L -275 0 
L 1906 2509 
L 878 4666 
z
" transform="scale(0.015625)"/>
       <path id="DejaVuSans-29" d="M 513 4856 
L 1013 4856 
Q 1481 4119 1714 3412 
Q 1947 2706 1947 2009 
Q 1947 1309 1714 600 
Q 1481 -109 1013 -844 
L 513 -844 
Q 928 -128 1133 580 
Q 1338 1288 1338 2009 
Q 1338 2731 1133 3434 
Q 928 4138 513 4856 
z
" transform="scale(0.015625)"/>
      </defs>
      <use xlink:href="#DejaVuSans-Oblique-66" transform="translate(0 0.015625)"/>
      <use xlink:href="#DejaVuSans-28" transform="translate(35.205078 0.015625)"/>
      <use xlink:href="#DejaVuSans-Oblique-58" transform="translate(74.21875 0.015625)"/>
      <use xlink:href="#DejaVuSans-29" transform="translate(142.724609 0.015625)"/>
     </g>
    </g>
   </g>
   <g id="text_38">
    <g clip-path="url(#pad093230ec)">
     <!-- G8 -->
     <g transform="translate(472.680664 65.899219) scale(0.125 -0.125)">
      <use xlink:href="#DejaVuSans-47"/>
      <use xlink:href="#DejaVuSans-38" x="77.490234"/>
     </g>
    </g>
   </g>
   <g id="text_39">
    <g clip-path="url(#pad093230ec)">
     <!-- G8 -->
     <g transform="translate(472.680664 65.899219) scale(0.125 -0.125)">
      <use xlink:href="#DejaVuSans-47"/>
      <use xlink:href="#DejaVuSans-38" x="77.490234"/>
     </g>
    </g>
   </g>
   <g id="text_40">
    <g clip-path="url(#pad093230ec)">
     <!-- $f(X)$ -->
     <g transform="translate(512.865 68.959219) scale(0.125 -0.125)">
      <use xlink:href="#DejaVuSans-Oblique-66" transform="translate(0 0.015625)"/>
      <use xlink:href="#DejaVuSans-28" transform="translate(35.205078 0.015625)"/>
      <use xlink:href="#DejaVuSans-Oblique-58" transform="translate(74.21875 0.015625)"/>
      <use xlink:href="#DejaVuSans-29" transform="translate(142.724609 0.015625)"/>
     </g>
    </g>
   </g>
   <g id="text_41">
    <g clip-path="url(#pad093230ec)">
     <!-- G8 -->
     <g transform="translate(472.680664 65.899219) scale(0.125 -0.125)">
      <use xlink:href="#DejaVuSans-47"/>
      <use xlink:href="#DejaVuSans-38" x="77.490234"/>
     </g>
    </g>
   </g>
   <g id="text_42">
    <g clip-path="url(#pad093230ec)">
     <!-- G8 -->
     <g transform="translate(472.680664 65.899219) scale(0.125 -0.125)">
      <use xlink:href="#DejaVuSans-47"/>
      <use xlink:href="#DejaVuSans-38" x="77.490234"/>
     </g>
    </g>
   </g>
   <g id="text_43">
    <g clip-path="url(#pad093230ec)">
     <!-- $f(X)$ -->
     <g transform="translate(512.865 68.959219) scale(0.125 -0.125)">
      <use xlink:href="#DejaVuSans-Oblique-66" transform="translate(0 0.015625)"/>
      <use xlink:href="#DejaVuSans-28" transform="translate(35.205078 0.015625)"/>
      <use xlink:href="#DejaVuSans-Oblique-58" transform="translate(74.21875 0.015625)"/>
      <use xlink:href="#DejaVuSans-29" transform="translate(142.724609 0.015625)"/>
     </g>
    </g>
   </g>
  </g>
 </g>
 <defs>
  <clipPath id="pad093230ec">
   <rect x="7.2" y="7.2" width="541.0998" height="76.67"/>
  </clipPath>
 </defs>
</svg>
